<svg width="31" height="31" viewBox="0 0 31 31" fill="none" xmlns="http://www.w3.org/2000/svg">
<path d="M25.2133 4.75334V3.92667C25.2133 3.69841 25.3984 3.51334 25.6266 3.51334C25.8549 3.51334 26.04 3.69841 26.04 3.92667V4.75334C26.04 4.9816 25.8549 5.16667 25.6266 5.16667C25.3984 5.16667 25.2133 4.9816 25.2133 4.75334ZM25.6266 5.99334C25.3984 5.99334 25.2133 6.17841 25.2133 6.40667V7.23334C25.2133 7.4616 25.3984 7.64667 25.6266 7.64667C25.8549 7.64667 26.04 7.4616 26.04 7.23334V6.40667C26.04 6.17841 25.8549 5.99334 25.6266 5.99334ZM23.9733 5.99334H24.8C25.0282 5.99334 25.2133 5.80827 25.2133 5.58C25.2133 5.35174 25.0282 5.16667 24.8 5.16667H23.9733C23.745 5.16667 23.56 5.35174 23.56 5.58C23.56 5.80827 23.745 5.99334 23.9733 5.99334ZM27.28 5.16667H26.4533C26.225 5.16667 26.04 5.35174 26.04 5.58C26.04 5.80827 26.225 5.99334 26.4533 5.99334H27.28C27.5082 5.99334 27.6933 5.80827 27.6933 5.58C27.6933 5.35174 27.5082 5.16667 27.28 5.16667ZM6.19997 6.61334C6.19997 7.41097 5.55094 8.06 4.75331 8.06C3.95568 8.06 3.30664 7.41097 3.30664 6.61334C3.30664 5.81571 3.95568 5.16667 4.75331 5.16667C5.55094 5.16667 6.19997 5.81571 6.19997 6.61334ZM5.37331 6.61334C5.37331 6.27151 5.09513 5.99334 4.75331 5.99334C4.41148 5.99334 4.13331 6.27151 4.13331 6.61334C4.13331 6.95516 4.41148 7.23334 4.75331 7.23334C5.09513 7.23334 5.37331 6.95516 5.37331 6.61334ZM19.0472 5.8557C19.2913 5.8557 19.4891 5.65781 19.4891 5.41374C19.4891 5.16967 19.2913 4.97189 19.0472 4.97189C18.8031 4.97189 18.6053 5.16977 18.6053 5.41374C18.6053 5.65781 18.8031 5.8557 19.0472 5.8557V5.8557ZM3.75387 13.2386C3.50979 13.2386 3.31201 13.4364 3.31201 13.6804C3.31201 13.9245 3.50979 14.1224 3.75387 14.1224C3.99794 14.1224 4.19572 13.9245 4.19572 13.6804C4.19582 13.4364 3.99794 13.2386 3.75387 13.2386ZM26.9912 11.464V15.249C26.9912 15.356 26.9496 15.4589 26.8753 15.5358L23.6075 18.925C23.6075 18.9264 23.6083 18.9277 23.6083 18.9292V27.0733C23.6083 27.3016 23.4233 27.4867 23.195 27.4867H6.66094C6.43268 27.4867 6.24761 27.3016 6.24761 27.0733V9.71251C6.24761 9.48425 6.43268 9.29918 6.66094 9.29918H11.493C11.4395 9.20091 11.4263 9.08373 11.4619 8.97388C11.5105 8.82436 11.6399 8.71514 11.7955 8.69261L13.8716 8.39088L14.8002 6.5099C14.9395 6.2278 15.402 6.2278 15.5413 6.5099L16.4699 8.39088L18.546 8.69261C18.7017 8.71524 18.831 8.82436 18.8797 8.97388C18.9153 9.08373 18.9021 9.20101 18.8486 9.29918H23.1951C23.4234 9.29918 23.6084 9.48425 23.6084 9.71251V14.2749L26.2648 11.1941C26.3779 11.0631 26.5611 11.0169 26.7218 11.0765C26.8838 11.1367 26.9912 11.2912 26.9912 11.464V11.464ZM22.7818 19.7815L20.3005 22.3549C20.2197 22.4388 20.1116 22.4814 20.0028 22.4814C19.9104 22.4814 19.8178 22.4505 19.7411 22.3878L16.713 19.907C16.6155 19.8272 16.5599 19.7071 16.5616 19.5813L16.603 16.7481C16.6053 16.591 16.6962 16.449 16.8378 16.3813C16.9791 16.3135 17.147 16.3317 17.2708 16.4286L19.9473 18.5208L22.7854 15.2294C22.7851 15.223 22.7817 15.2176 22.7817 15.2112V10.1258H18.028L17.2729 10.8619L17.6275 12.9298C17.654 13.0848 17.5901 13.2417 17.463 13.334C17.391 13.3863 17.3056 13.413 17.22 13.413C17.1541 13.413 17.0882 13.3973 17.0277 13.3655L15.1706 12.3894L13.3136 13.3655C13.1746 13.4386 13.0059 13.4267 12.8783 13.3341C12.7512 13.2417 12.6873 13.0849 12.7138 12.9299L13.0684 10.862L12.3133 10.1259H7.07428V26.66H22.7818V19.7815ZM26.1645 12.5762L20.316 19.359C20.1721 19.5261 19.9217 19.5512 19.7485 19.4147L17.4175 17.5924L17.3911 19.3939L19.9702 21.5068L26.1646 15.0819V12.5762H26.1645ZM9.09331 15.5H13.2266C13.4549 15.5 13.64 15.3149 13.64 15.0867C13.64 14.8584 13.4549 14.6733 13.2266 14.6733H9.09331C8.86504 14.6733 8.67997 14.8584 8.67997 15.0867C8.67997 15.3149 8.86504 15.5 9.09331 15.5ZM9.09331 17.5667H13.2266C13.4549 17.5667 13.64 17.3816 13.64 17.1533C13.64 16.9251 13.4549 16.74 13.2266 16.74H9.09331C8.86504 16.74 8.67997 16.9251 8.67997 17.1533C8.67997 17.3816 8.86504 17.5667 9.09331 17.5667ZM9.09331 19.6333H13.2266C13.4549 19.6333 13.64 19.4483 13.64 19.22C13.64 18.9917 13.4549 18.8067 13.2266 18.8067H9.09331C8.86504 18.8067 8.67997 18.9917 8.67997 19.22C8.67997 19.4483 8.86504 19.6333 9.09331 19.6333ZM15.7066 20.8733H9.09331C8.86504 20.8733 8.67997 21.0584 8.67997 21.2867C8.67997 21.5149 8.86504 21.7 9.09331 21.7H15.7066C15.9349 21.7 16.12 21.5149 16.12 21.2867C16.12 21.0584 15.9349 20.8733 15.7066 20.8733Z" fill="url(#paint0_linear)"/>
<defs>
<linearGradient id="paint0_linear" x1="4.54519" y1="25.5421" x2="26.1859" y2="3.90146" gradientUnits="userSpaceOnUse">
<stop stop-color="white"/>
<stop offset="1" stop-color="white"/>
</linearGradient>
</defs>
</svg>
